M48
;Layer_Color=9474304
;FILE_FORMAT=2:4
INCH,LZ
;TYPE=PLATED
T1F00S00C0.0080
T2F00S00C0.0100
T3F00S00C0.0120
T4F00S00C0.0402
T5F00S00C0.0787
;TYPE=NON_PLATED
T6F00S00C0.0945
%
T01
X000695Y-002598
X000768Y-002274
X001093
X001407
X000935Y-001762
X000433
X-000266Y-00125
X-00015Y-0003
X0002
X0007
X00123
X0013Y0002
X001319Y0005
X001624Y000542
X0019Y000469
X0026Y0008
X003248Y000575
X004104Y00008
X004439
X0042Y-00085
X0036Y-00055
X00395Y-001644
X00285
X0028Y-0028
X002769Y-003736
X001653Y-001083
X001299Y-00125
X000758Y000333
X000161Y000433
X-0004Y00085
X-00035Y00155
X-000546Y001738
X-00045Y002093
Y00235
X-000546Y002603
X-00055Y0029
X-0004Y00335
X-000177Y00315
X000066
X000217Y003657
X00055Y003573
X000805Y00344
X000827Y003739
X000974Y00319
X001438Y00314
X001732Y00315
X001598Y003428
X001803Y003647
X002046Y003878
X002297Y004127
X002509Y004339
X002843Y004368
X003171Y004279
X003511Y004277
X003839Y004364
X004134Y004533
X001622Y004727
X001355Y004459
X002074Y005291
X002046Y00563
X0023Y00215
X-002Y001916
Y0024
Y0014
X-001612Y-000157
X-00165Y-000512
Y-00165
X-002431Y-002362
X-00315Y000396
X-00355Y00025
X-004111Y000799
X-005Y00075
X-00495Y00165
Y00215
Y00265
X-001506Y00335
T02
X000541Y001374
Y00224
X001407
Y001374
T03
X-004475Y-00425
X-003725
X-002975
X-0026Y-005
X-00335
X-0011
X004525Y-00425
X003775Y-00275
Y-00125
X004525
X005275
X006025
X00565Y-0005
X0049
X005275Y00025
X006025
X00565Y001
X005275Y00175
X00565Y0025
X0049
X00415
X004525Y00325
X005275
X00415Y004
X0004
X000775Y00475
X000025
X-0011Y004
Y-002
Y-0035
X00565Y-002
X-0012Y-002549
X-001612Y-003
X-002225Y-00275
X-005225
X-00485Y-002
X-0056
X-005225Y-00125
X-00485Y-0005
X-0056Y001
X-005225Y00175
X-0056Y0025
X-005225Y00325
X-004475
X-003725
X-002975
Y00475
X-00485Y-0035
T04
X003346Y005568
T05
X00123Y-00506
X00223
T06
X-000108Y-005089
X-00374Y004331
M30
