G04*
G04 #@! TF.GenerationSoftware,Altium Limited,Altium Designer,19.0.12 (326)*
G04*
G04 Layer_Physical_Order=3*
G04 Layer_Color=16440176*
%FSLAX24Y24*%
%MOIN*%
G70*
G01*
G75*
%ADD64C,0.0080*%
%ADD65C,0.0100*%
%ADD67C,0.0040*%
G04:AMPARAMS|DCode=74|XSize=137.8mil|YSize=90.6mil|CornerRadius=22.6mil|HoleSize=0mil|Usage=FLASHONLY|Rotation=90.000|XOffset=0mil|YOffset=0mil|HoleType=Round|Shape=RoundedRectangle|*
%AMROUNDEDRECTD74*
21,1,0.1378,0.0453,0,0,90.0*
21,1,0.0925,0.0906,0,0,90.0*
1,1,0.0453,0.0226,0.0463*
1,1,0.0453,0.0226,-0.0463*
1,1,0.0453,-0.0226,-0.0463*
1,1,0.0453,-0.0226,0.0463*
%
%ADD74ROUNDEDRECTD74*%
%ADD76C,0.0220*%
%ADD77C,0.0200*%
%ADD78C,0.0250*%
G36*
X2133Y5752D02*
X2165Y5715D01*
X2156Y5651D01*
X2158Y5464D01*
X2188Y5280D01*
X2248Y5102D01*
X2334Y4936D01*
X2446Y4786D01*
X2579Y4655D01*
X2731Y4546D01*
X2899Y4462D01*
X3077Y4406D01*
X3263Y4378D01*
X3450Y4380D01*
X3634Y4411D01*
X3812Y4470D01*
X3978Y4557D01*
X4128Y4668D01*
X4207Y4748D01*
X4330Y4641D01*
X4649Y4321D01*
X4945Y3979D01*
X5216Y3616D01*
X5461Y3235D01*
X5677Y2838D01*
X5865Y2426D01*
X6023Y2002D01*
X6150Y1568D01*
X6247Y1126D01*
X6311Y678D01*
X6343Y226D01*
Y-226D01*
X6311Y-678D01*
X6247Y-1126D01*
X6150Y-1568D01*
X6023Y-2002D01*
X5865Y-2426D01*
X5677Y-2838D01*
X5461Y-3235D01*
X5216Y-3616D01*
X4945Y-3979D01*
X4649Y-4321D01*
X4330Y-4641D01*
X3988Y-4938D01*
X3626Y-5210D01*
X3246Y-5455D01*
X2849Y-5672D01*
X2716Y-5733D01*
X2699Y-5726D01*
X2684Y-5664D01*
X2689Y-5657D01*
X2716Y-5592D01*
X2725Y-5523D01*
Y-4597D01*
X2716Y-4528D01*
X2689Y-4463D01*
X2646Y-4407D01*
X2591Y-4365D01*
X2526Y-4338D01*
X2456Y-4329D01*
X2004D01*
X1934Y-4338D01*
X1869Y-4365D01*
X1814Y-4407D01*
X1771Y-4463D01*
X1768Y-4470D01*
X1714D01*
X1707Y-4453D01*
X1661Y-4393D01*
X1601Y-4347D01*
X1531Y-4318D01*
X1456Y-4309D01*
X1280D01*
Y-5060D01*
X1230D01*
Y-5110D01*
X715D01*
Y-5523D01*
X725Y-5597D01*
X753Y-5667D01*
X781Y-5703D01*
X756Y-5753D01*
X316Y-5753D01*
X309Y-5724D01*
X308Y-5702D01*
X417Y-5614D01*
X509Y-5501D01*
X578Y-5373D01*
X620Y-5233D01*
X634Y-5089D01*
X620Y-4944D01*
X578Y-4804D01*
X509Y-4676D01*
X417Y-4564D01*
X304Y-4471D01*
X176Y-4403D01*
X37Y-4360D01*
X-108Y-4346D01*
X-253Y-4360D01*
X-392Y-4403D01*
X-521Y-4471D01*
X-633Y-4564D01*
X-726Y-4676D01*
X-794Y-4804D01*
X-836Y-4944D01*
X-851Y-5089D01*
X-836Y-5233D01*
X-794Y-5373D01*
X-726Y-5501D01*
X-633Y-5614D01*
X-525Y-5702D01*
X-525Y-5725D01*
X-532Y-5752D01*
X-2673Y-5752D01*
X-2849Y-5672D01*
X-3246Y-5455D01*
X-3626Y-5210D01*
X-3988Y-4938D01*
X-4330Y-4641D01*
X-4649Y-4321D01*
X-4945Y-3979D01*
X-5216Y-3616D01*
X-5461Y-3235D01*
X-5677Y-2838D01*
X-5865Y-2426D01*
X-6023Y-2002D01*
X-6150Y-1568D01*
X-6247Y-1126D01*
X-6311Y-678D01*
X-6343Y-226D01*
Y226D01*
X-6311Y678D01*
X-6247Y1126D01*
X-6150Y1568D01*
X-6023Y2002D01*
X-5865Y2426D01*
X-5677Y2838D01*
X-5461Y3235D01*
X-5216Y3616D01*
X-4945Y3979D01*
X-4649Y4321D01*
X-4521Y4449D01*
X-4473Y4427D01*
X-4483Y4331D01*
X-4468Y4186D01*
X-4426Y4047D01*
X-4357Y3918D01*
X-4265Y3806D01*
X-4153Y3713D01*
X-4024Y3645D01*
X-3885Y3603D01*
X-3740Y3588D01*
X-3595Y3603D01*
X-3456Y3645D01*
X-3328Y3713D01*
X-3215Y3806D01*
X-3123Y3918D01*
X-3054Y4047D01*
X-3012Y4186D01*
X-2998Y4331D01*
X-3012Y4476D01*
X-3054Y4615D01*
X-3123Y4743D01*
X-3215Y4856D01*
X-3328Y4948D01*
X-3456Y5017D01*
X-3595Y5059D01*
X-3726Y5072D01*
X-3746Y5120D01*
X-3626Y5210D01*
X-3246Y5455D01*
X-2849Y5672D01*
X-2673Y5753D01*
X2133Y5752D01*
D02*
G37*
%LPC*%
G36*
X-400Y3493D02*
X-455Y3482D01*
X-501Y3451D01*
X-525Y3415D01*
X-1250D01*
X-1296Y3396D01*
X-1318Y3374D01*
X-1372Y3391D01*
X-1375Y3405D01*
X-1406Y3451D01*
X-1452Y3482D01*
X-1506Y3493D01*
X-1561Y3482D01*
X-1607Y3451D01*
X-1638Y3405D01*
X-1649Y3350D01*
X-1638Y3295D01*
X-1607Y3249D01*
X-1561Y3218D01*
X-1547Y3215D01*
X-1531Y3161D01*
X-1977Y2715D01*
X-4825D01*
X-4849Y2751D01*
X-4895Y2782D01*
X-4950Y2793D01*
X-5005Y2782D01*
X-5051Y2751D01*
X-5082Y2705D01*
X-5093Y2650D01*
X-5082Y2595D01*
X-5051Y2549D01*
X-5005Y2518D01*
X-4950Y2507D01*
X-4895Y2518D01*
X-4849Y2549D01*
X-4825Y2585D01*
X-2044D01*
X-2039Y2535D01*
X-2055Y2532D01*
X-2101Y2501D01*
X-2132Y2455D01*
X-2143Y2400D01*
X-2132Y2345D01*
X-2101Y2299D01*
X-2055Y2268D01*
X-2067Y2221D01*
X-2070Y2215D01*
X-4825D01*
X-4849Y2251D01*
X-4895Y2282D01*
X-4950Y2293D01*
X-5005Y2282D01*
X-5051Y2251D01*
X-5082Y2205D01*
X-5093Y2150D01*
X-5082Y2095D01*
X-5051Y2049D01*
X-5005Y2018D01*
X-4950Y2007D01*
X-4895Y2018D01*
X-4849Y2049D01*
X-4825Y2085D01*
X-2090D01*
X-2074Y2035D01*
X-2101Y2017D01*
X-2132Y1971D01*
X-2143Y1916D01*
X-2132Y1862D01*
X-2101Y1815D01*
X-2069Y1794D01*
X-2052Y1746D01*
X-2052Y1733D01*
X-2065Y1715D01*
X-4825D01*
X-4849Y1751D01*
X-4895Y1782D01*
X-4950Y1793D01*
X-5005Y1782D01*
X-5051Y1751D01*
X-5082Y1705D01*
X-5093Y1650D01*
X-5082Y1595D01*
X-5051Y1549D01*
X-5005Y1518D01*
X-4950Y1507D01*
X-4895Y1518D01*
X-4849Y1549D01*
X-4825Y1585D01*
X-2044D01*
X-2039Y1535D01*
X-2055Y1532D01*
X-2101Y1501D01*
X-2132Y1455D01*
X-2143Y1400D01*
X-2132Y1345D01*
X-2101Y1299D01*
X-2055Y1268D01*
X-2000Y1257D01*
X-1945Y1268D01*
X-1899Y1299D01*
X-1868Y1345D01*
X-1857Y1400D01*
X-1866Y1442D01*
X-1281Y2028D01*
X-575D01*
X-551Y1992D01*
X-505Y1961D01*
X-450Y1950D01*
X-395Y1961D01*
X-349Y1992D01*
X-318Y2038D01*
X-307Y2093D01*
X-318Y2147D01*
X-347Y2190D01*
X-353Y2205D01*
Y2238D01*
X-347Y2252D01*
X-318Y2295D01*
X-307Y2350D01*
X-318Y2405D01*
X-349Y2451D01*
X-395Y2482D01*
X-398Y2482D01*
X-421Y2538D01*
X-414Y2549D01*
X-403Y2603D01*
X-414Y2658D01*
X-445Y2704D01*
X-476Y2725D01*
X-478Y2776D01*
X-477Y2781D01*
X-449Y2799D01*
X-418Y2845D01*
X-407Y2900D01*
X-418Y2955D01*
X-449Y3001D01*
X-495Y3032D01*
X-511Y3035D01*
X-506Y3085D01*
X-302D01*
X-278Y3049D01*
X-232Y3018D01*
X-177Y3007D01*
X-122Y3018D01*
X-76Y3049D01*
X-39D01*
X1Y3015D01*
Y843D01*
X-546Y296D01*
X-565Y250D01*
Y-1350D01*
X-546Y-1396D01*
X161Y-2103D01*
X207Y-2122D01*
X653D01*
X667Y-2169D01*
X638Y-2209D01*
X188D01*
X-935Y-1085D01*
Y873D01*
X-392Y1416D01*
X-350Y1407D01*
X-295Y1418D01*
X-249Y1449D01*
X-218Y1495D01*
X-207Y1550D01*
X-218Y1605D01*
X-249Y1651D01*
X-295Y1682D01*
X-350Y1693D01*
X-362Y1690D01*
X-405Y1733D01*
X-403Y1738D01*
X-414Y1793D01*
X-445Y1839D01*
X-492Y1870D01*
X-546Y1881D01*
X-601Y1870D01*
X-647Y1839D01*
X-678Y1793D01*
X-689Y1738D01*
X-678Y1684D01*
X-647Y1638D01*
X-601Y1607D01*
X-546Y1596D01*
X-534Y1598D01*
X-492Y1556D01*
X-493Y1550D01*
X-484Y1508D01*
X-1046Y946D01*
X-1065Y900D01*
Y-1112D01*
X-1046Y-1158D01*
X115Y-2320D01*
X161Y-2339D01*
X643D01*
X667Y-2375D01*
X713Y-2405D01*
X768Y-2416D01*
X822Y-2405D01*
X869Y-2375D01*
X900Y-2328D01*
X905Y-2303D01*
X956D01*
X961Y-2328D01*
X992Y-2375D01*
X1038Y-2405D01*
X1093Y-2416D01*
X1147Y-2405D01*
X1193Y-2375D01*
X1224Y-2328D01*
X1225Y-2328D01*
X1275D01*
X1276Y-2328D01*
X1307Y-2375D01*
X1353Y-2405D01*
X1407Y-2416D01*
X1462Y-2405D01*
X1508Y-2375D01*
X1539Y-2328D01*
X1550Y-2274D01*
X1539Y-2219D01*
X1508Y-2173D01*
X1462Y-2142D01*
X1407Y-2131D01*
X1353Y-2142D01*
X1307Y-2173D01*
X1276Y-2219D01*
X1275Y-2220D01*
X1225D01*
X1224Y-2219D01*
X1193Y-2173D01*
X1147Y-2142D01*
X1093Y-2131D01*
X1050Y-2139D01*
X922Y-2011D01*
X876Y-1992D01*
X234D01*
X-326Y-1432D01*
X-302Y-1386D01*
X-266Y-1393D01*
X-212Y-1382D01*
X-165Y-1351D01*
X-134Y-1305D01*
X-123Y-1250D01*
X-134Y-1195D01*
X-165Y-1149D01*
X-212Y-1118D01*
X-266Y-1107D01*
X-321Y-1118D01*
X-367Y-1149D01*
X-385Y-1176D01*
X-435Y-1161D01*
Y223D01*
X112Y770D01*
X131Y816D01*
Y3025D01*
X167Y3049D01*
X198Y3095D01*
X209Y3150D01*
X198Y3205D01*
X167Y3251D01*
X121Y3282D01*
X66Y3293D01*
X11Y3282D01*
X-35Y3251D01*
X-76D01*
X-122Y3282D01*
X-177Y3293D01*
X-220Y3284D01*
X-252Y3307D01*
X-263Y3321D01*
X-257Y3350D01*
X-268Y3405D01*
X-299Y3451D01*
X-345Y3482D01*
X-400Y3493D01*
D02*
G37*
G36*
X1732Y3293D02*
X1678Y3282D01*
X1631Y3251D01*
X1600Y3205D01*
X1590Y3150D01*
X1600Y3095D01*
X1631Y3049D01*
X1678Y3018D01*
X1732Y3007D01*
X1787Y3018D01*
X1833Y3049D01*
X1864Y3095D01*
X1875Y3150D01*
X1864Y3205D01*
X1833Y3251D01*
X1787Y3282D01*
X1732Y3293D01*
D02*
G37*
G36*
X1457Y2404D02*
Y2290D01*
X1571D01*
X1568Y2306D01*
X1530Y2363D01*
X1474Y2400D01*
X1457Y2404D01*
D02*
G37*
G36*
X1357D02*
X1341Y2400D01*
X1285Y2363D01*
X1247Y2306D01*
X1244Y2290D01*
X1357D01*
Y2404D01*
D02*
G37*
G36*
X591D02*
Y2290D01*
X705D01*
X701Y2306D01*
X664Y2363D01*
X608Y2400D01*
X591Y2404D01*
D02*
G37*
G36*
X491D02*
X475Y2400D01*
X419Y2363D01*
X381Y2306D01*
X378Y2290D01*
X491D01*
Y2404D01*
D02*
G37*
G36*
X1571Y2190D02*
X1457D01*
Y2077D01*
X1474Y2080D01*
X1530Y2118D01*
X1568Y2174D01*
X1571Y2190D01*
D02*
G37*
G36*
X1357D02*
X1244D01*
X1247Y2174D01*
X1285Y2118D01*
X1341Y2080D01*
X1357Y2077D01*
Y2190D01*
D02*
G37*
G36*
X705D02*
X591D01*
Y2077D01*
X608Y2080D01*
X664Y2118D01*
X701Y2174D01*
X705Y2190D01*
D02*
G37*
G36*
X491D02*
X378D01*
X381Y2174D01*
X419Y2118D01*
X475Y2080D01*
X491Y2077D01*
Y2190D01*
D02*
G37*
G36*
X2300Y2293D02*
X2245Y2282D01*
X2199Y2251D01*
X2168Y2205D01*
X2157Y2150D01*
X2168Y2095D01*
X2199Y2049D01*
X2245Y2018D01*
X2300Y2007D01*
X2355Y2018D01*
X2401Y2049D01*
X2432Y2095D01*
X2443Y2150D01*
X2432Y2205D01*
X2401Y2251D01*
X2355Y2282D01*
X2300Y2293D01*
D02*
G37*
G36*
X1457Y1537D02*
Y1424D01*
X1571D01*
X1568Y1440D01*
X1530Y1497D01*
X1474Y1534D01*
X1457Y1537D01*
D02*
G37*
G36*
X1357D02*
X1341Y1534D01*
X1285Y1497D01*
X1247Y1440D01*
X1244Y1424D01*
X1357D01*
Y1537D01*
D02*
G37*
G36*
X591D02*
Y1424D01*
X705D01*
X701Y1440D01*
X664Y1497D01*
X608Y1534D01*
X591Y1537D01*
D02*
G37*
G36*
X491D02*
X475Y1534D01*
X419Y1497D01*
X381Y1440D01*
X378Y1424D01*
X491D01*
Y1537D01*
D02*
G37*
G36*
X1571Y1324D02*
X1457D01*
Y1211D01*
X1474Y1214D01*
X1530Y1251D01*
X1568Y1308D01*
X1571Y1324D01*
D02*
G37*
G36*
X1357D02*
X1244D01*
X1247Y1308D01*
X1285Y1251D01*
X1341Y1214D01*
X1357Y1211D01*
Y1324D01*
D02*
G37*
G36*
X705D02*
X591D01*
Y1211D01*
X608Y1214D01*
X664Y1251D01*
X701Y1308D01*
X705Y1324D01*
D02*
G37*
G36*
X491D02*
X378D01*
X381Y1308D01*
X419Y1251D01*
X475Y1214D01*
X491Y1211D01*
Y1324D01*
D02*
G37*
G36*
X-400Y993D02*
X-455Y982D01*
X-501Y951D01*
X-532Y905D01*
X-543Y850D01*
X-532Y795D01*
X-501Y749D01*
X-455Y718D01*
X-400Y707D01*
X-345Y718D01*
X-299Y749D01*
X-268Y795D01*
X-257Y850D01*
X-268Y905D01*
X-299Y951D01*
X-345Y982D01*
X-400Y993D01*
D02*
G37*
G36*
X-4111Y942D02*
X-4166Y931D01*
X-4212Y900D01*
X-4243Y854D01*
X-4254Y799D01*
X-4243Y745D01*
X-4212Y698D01*
X-4166Y667D01*
X-4111Y657D01*
X-4057Y667D01*
X-4010Y698D01*
X-3980Y745D01*
X-3969Y799D01*
X-3980Y854D01*
X-4010Y900D01*
X-4057Y931D01*
X-4111Y942D01*
D02*
G37*
G36*
X-5000Y893D02*
X-5055Y882D01*
X-5101Y851D01*
X-5132Y805D01*
X-5143Y750D01*
X-5132Y695D01*
X-5101Y649D01*
X-5055Y618D01*
X-5000Y607D01*
X-4945Y618D01*
X-4899Y649D01*
X-4868Y695D01*
X-4857Y750D01*
X-4868Y805D01*
X-4899Y851D01*
X-4945Y882D01*
X-5000Y893D01*
D02*
G37*
G36*
X1624Y685D02*
X1569Y674D01*
X1523Y643D01*
X1492Y597D01*
X1490Y586D01*
X1437Y576D01*
X1420Y601D01*
X1374Y632D01*
X1319Y643D01*
X1264Y632D01*
X1218Y601D01*
X1187Y555D01*
X1176Y500D01*
X1187Y445D01*
X1218Y399D01*
X1243Y382D01*
X1244Y361D01*
X1237Y326D01*
X1199Y301D01*
X1168Y255D01*
X1157Y200D01*
X1168Y145D01*
X1199Y99D01*
X1245Y68D01*
X1300Y57D01*
X1355Y68D01*
X1401Y99D01*
X1432Y145D01*
X1443Y200D01*
X1432Y255D01*
X1401Y301D01*
X1376Y318D01*
X1375Y339D01*
X1382Y374D01*
X1420Y399D01*
X1451Y445D01*
X1453Y456D01*
X1506Y467D01*
X1523Y441D01*
X1569Y410D01*
X1624Y400D01*
X1679Y410D01*
X1713Y434D01*
X1754Y424D01*
X1768Y416D01*
X1768Y414D01*
X1799Y368D01*
X1808Y362D01*
Y-2212D01*
X1514Y-2507D01*
X802D01*
X796Y-2497D01*
X750Y-2467D01*
X695Y-2456D01*
X641Y-2467D01*
X594Y-2497D01*
X563Y-2544D01*
X552Y-2598D01*
X563Y-2653D01*
X594Y-2699D01*
X641Y-2730D01*
X695Y-2741D01*
X750Y-2730D01*
X796Y-2699D01*
X802Y-2690D01*
X1552D01*
X1587Y-2683D01*
X1616Y-2663D01*
X1965Y-2315D01*
X1985Y-2285D01*
X1992Y-2250D01*
Y362D01*
X2001Y368D01*
X2032Y414D01*
X2043Y469D01*
X2032Y523D01*
X2001Y570D01*
X1955Y601D01*
X1900Y611D01*
X1845Y601D01*
X1811Y577D01*
X1770Y587D01*
X1756Y595D01*
X1756Y597D01*
X1725Y643D01*
X1679Y674D01*
X1624Y685D01*
D02*
G37*
G36*
X550Y3716D02*
X495Y3705D01*
X449Y3674D01*
X418Y3627D01*
X407Y3573D01*
X418Y3518D01*
X449Y3472D01*
X495Y3441D01*
X550Y3430D01*
Y3268D01*
X569Y3222D01*
X1037Y2753D01*
Y758D01*
X889Y610D01*
X870Y564D01*
Y486D01*
X820Y459D01*
X812Y464D01*
X758Y475D01*
X703Y464D01*
X657Y434D01*
X626Y387D01*
X615Y333D01*
X626Y278D01*
X657Y232D01*
X703Y201D01*
X758Y190D01*
X812Y201D01*
X820Y206D01*
X870Y179D01*
Y-213D01*
X820Y-228D01*
X801Y-199D01*
X755Y-168D01*
X700Y-157D01*
X645Y-168D01*
X599Y-199D01*
X568Y-245D01*
X557Y-300D01*
X568Y-355D01*
X599Y-401D01*
X645Y-432D01*
X700Y-443D01*
X755Y-432D01*
X801Y-401D01*
X820Y-372D01*
X870Y-387D01*
Y-1637D01*
X834Y-1661D01*
X803Y-1708D01*
X792Y-1762D01*
X803Y-1817D01*
X834Y-1863D01*
X880Y-1894D01*
X935Y-1905D01*
X990Y-1894D01*
X1036Y-1863D01*
X1067Y-1817D01*
X1078Y-1762D01*
X1067Y-1708D01*
X1036Y-1661D01*
X1000Y-1637D01*
Y537D01*
X1148Y685D01*
X1167Y731D01*
Y2780D01*
X1148Y2826D01*
X680Y3295D01*
Y3508D01*
X678Y3512D01*
X682Y3518D01*
X693Y3573D01*
X682Y3627D01*
X651Y3674D01*
X605Y3705D01*
X550Y3716D01*
D02*
G37*
G36*
X161Y576D02*
X107Y565D01*
X60Y534D01*
X30Y488D01*
X19Y433D01*
X30Y378D01*
X60Y332D01*
X107Y301D01*
X161Y290D01*
X216Y301D01*
X262Y332D01*
X293Y378D01*
X304Y433D01*
X293Y488D01*
X262Y534D01*
X216Y565D01*
X161Y576D01*
D02*
G37*
G36*
X-3150Y538D02*
X-3205Y528D01*
X-3251Y497D01*
X-3282Y450D01*
X-3293Y396D01*
X-3282Y341D01*
X-3251Y295D01*
X-3205Y264D01*
X-3150Y253D01*
X-3095Y264D01*
X-3049Y295D01*
X-3018Y341D01*
X-3007Y396D01*
X-3018Y450D01*
X-3049Y497D01*
X-3095Y528D01*
X-3150Y538D01*
D02*
G37*
G36*
X-3550Y393D02*
X-3605Y382D01*
X-3651Y351D01*
X-3682Y305D01*
X-3693Y250D01*
X-3682Y195D01*
X-3651Y149D01*
X-3605Y118D01*
X-3550Y107D01*
X-3495Y118D01*
X-3449Y149D01*
X-3418Y195D01*
X-3407Y250D01*
X-3418Y305D01*
X-3449Y351D01*
X-3495Y382D01*
X-3550Y393D01*
D02*
G37*
G36*
X4439Y222D02*
X4384Y212D01*
X4338Y181D01*
X4307Y134D01*
X4296Y80D01*
X4307Y25D01*
X4338Y-21D01*
X4384Y-52D01*
X4439Y-63D01*
X4494Y-52D01*
X4540Y-21D01*
X4571Y25D01*
X4582Y80D01*
X4571Y134D01*
X4540Y181D01*
X4494Y212D01*
X4439Y222D01*
D02*
G37*
G36*
X-1612Y-15D02*
X-1667Y-26D01*
X-1713Y-57D01*
X-1744Y-103D01*
X-1755Y-157D01*
X-1744Y-212D01*
X-1713Y-258D01*
X-1667Y-289D01*
X-1612Y-300D01*
X-1558Y-289D01*
X-1511Y-258D01*
X-1480Y-212D01*
X-1469Y-157D01*
X-1480Y-103D01*
X-1511Y-57D01*
X-1558Y-26D01*
X-1612Y-15D01*
D02*
G37*
G36*
X-150Y-157D02*
X-205Y-168D01*
X-251Y-199D01*
X-282Y-245D01*
X-293Y-300D01*
X-282Y-355D01*
X-251Y-401D01*
X-205Y-432D01*
X-150Y-443D01*
X-95Y-432D01*
X-49Y-401D01*
X-18Y-355D01*
X-7Y-300D01*
X-18Y-245D01*
X-49Y-199D01*
X-95Y-168D01*
X-150Y-157D01*
D02*
G37*
G36*
X-1650Y-369D02*
X-1705Y-380D01*
X-1751Y-411D01*
X-1782Y-458D01*
X-1793Y-512D01*
X-1782Y-567D01*
X-1751Y-613D01*
X-1705Y-644D01*
X-1650Y-655D01*
X-1595Y-644D01*
X-1549Y-613D01*
X-1518Y-567D01*
X-1507Y-512D01*
X-1518Y-458D01*
X-1549Y-411D01*
X-1595Y-380D01*
X-1650Y-369D01*
D02*
G37*
G36*
X3600Y-407D02*
X3545Y-418D01*
X3499Y-449D01*
X3468Y-495D01*
X3457Y-550D01*
X3468Y-605D01*
X3499Y-651D01*
X3545Y-682D01*
X3600Y-693D01*
X3655Y-682D01*
X3701Y-651D01*
X3732Y-605D01*
X3743Y-550D01*
X3732Y-495D01*
X3701Y-449D01*
X3655Y-418D01*
X3600Y-407D01*
D02*
G37*
G36*
X4200Y-707D02*
X4145Y-718D01*
X4099Y-749D01*
X4068Y-795D01*
X4057Y-850D01*
X4068Y-905D01*
X4099Y-951D01*
X4145Y-982D01*
X4200Y-993D01*
X4255Y-982D01*
X4301Y-951D01*
X4332Y-905D01*
X4343Y-850D01*
X4332Y-795D01*
X4301Y-749D01*
X4255Y-718D01*
X4200Y-707D01*
D02*
G37*
G36*
X1299Y-1107D02*
X1245Y-1118D01*
X1198Y-1149D01*
X1167Y-1195D01*
X1156Y-1250D01*
X1167Y-1305D01*
X1198Y-1351D01*
X1245Y-1382D01*
X1299Y-1393D01*
X1354Y-1382D01*
X1400Y-1351D01*
X1431Y-1305D01*
X1442Y-1250D01*
X1431Y-1195D01*
X1400Y-1149D01*
X1354Y-1118D01*
X1299Y-1107D01*
D02*
G37*
G36*
X3950Y-1501D02*
X3895Y-1512D01*
X3849Y-1543D01*
X3818Y-1589D01*
X3807Y-1644D01*
X3818Y-1698D01*
X3849Y-1745D01*
X3895Y-1776D01*
X3950Y-1786D01*
X4005Y-1776D01*
X4051Y-1745D01*
X4082Y-1698D01*
X4093Y-1644D01*
X4082Y-1589D01*
X4051Y-1543D01*
X4005Y-1512D01*
X3950Y-1501D01*
D02*
G37*
G36*
X2600Y943D02*
X2545Y932D01*
X2499Y901D01*
X2468Y855D01*
X2457Y800D01*
X2468Y745D01*
X2499Y699D01*
X2518Y686D01*
Y-2600D01*
X2518Y-2600D01*
X2525Y-2631D01*
X2542Y-2658D01*
X2662Y-2777D01*
X2657Y-2800D01*
X2668Y-2855D01*
X2699Y-2901D01*
X2745Y-2932D01*
X2800Y-2943D01*
X2855Y-2932D01*
X2901Y-2901D01*
X2932Y-2855D01*
X2943Y-2800D01*
X2932Y-2745D01*
X2901Y-2699D01*
X2855Y-2668D01*
X2800Y-2657D01*
X2777Y-2662D01*
X2682Y-2566D01*
Y-1734D01*
X2732Y-1718D01*
X2749Y-1745D01*
X2795Y-1776D01*
X2850Y-1786D01*
X2905Y-1776D01*
X2951Y-1745D01*
X2982Y-1698D01*
X2993Y-1644D01*
X2982Y-1589D01*
X2951Y-1543D01*
X2905Y-1512D01*
X2850Y-1501D01*
X2795Y-1512D01*
X2749Y-1543D01*
X2732Y-1569D01*
X2682Y-1554D01*
Y686D01*
X2701Y699D01*
X2732Y745D01*
X2743Y800D01*
X2732Y855D01*
X2701Y901D01*
X2655Y932D01*
X2600Y943D01*
D02*
G37*
G36*
X-1650Y-1507D02*
X-1705Y-1518D01*
X-1751Y-1549D01*
X-1782Y-1595D01*
X-1793Y-1650D01*
X-1782Y-1705D01*
X-1751Y-1751D01*
X-1705Y-1782D01*
X-1650Y-1793D01*
X-1595Y-1782D01*
X-1549Y-1751D01*
X-1518Y-1705D01*
X-1507Y-1650D01*
X-1518Y-1595D01*
X-1549Y-1549D01*
X-1595Y-1518D01*
X-1650Y-1507D01*
D02*
G37*
G36*
X217Y3800D02*
X162Y3789D01*
X116Y3758D01*
X85Y3712D01*
X74Y3657D01*
X85Y3603D01*
X116Y3556D01*
X152Y3532D01*
Y3397D01*
X171Y3351D01*
X805Y2716D01*
Y897D01*
X387Y479D01*
X368Y433D01*
Y-1637D01*
X332Y-1661D01*
X301Y-1708D01*
X290Y-1762D01*
X301Y-1817D01*
X332Y-1863D01*
X378Y-1894D01*
X433Y-1905D01*
X488Y-1894D01*
X534Y-1863D01*
X565Y-1817D01*
X576Y-1762D01*
X565Y-1708D01*
X534Y-1661D01*
X498Y-1637D01*
Y406D01*
X916Y824D01*
X935Y870D01*
Y2743D01*
X916Y2789D01*
X281Y3423D01*
Y3532D01*
X317Y3556D01*
X348Y3603D01*
X359Y3657D01*
X348Y3712D01*
X317Y3758D01*
X271Y3789D01*
X217Y3800D01*
D02*
G37*
G36*
X-2431Y-2219D02*
X-2485Y-2230D01*
X-2532Y-2261D01*
X-2563Y-2308D01*
X-2573Y-2362D01*
X-2563Y-2417D01*
X-2532Y-2463D01*
X-2485Y-2494D01*
X-2431Y-2505D01*
X-2376Y-2494D01*
X-2330Y-2463D01*
X-2299Y-2417D01*
X-2288Y-2362D01*
X-2299Y-2308D01*
X-2330Y-2261D01*
X-2376Y-2230D01*
X-2431Y-2219D01*
D02*
G37*
G36*
X2769Y-3593D02*
X2714Y-3604D01*
X2668Y-3635D01*
X2637Y-3681D01*
X2626Y-3736D01*
X2637Y-3790D01*
X2668Y-3837D01*
X2714Y-3867D01*
X2769Y-3878D01*
X2823Y-3867D01*
X2869Y-3837D01*
X2900Y-3790D01*
X2911Y-3736D01*
X2900Y-3681D01*
X2869Y-3635D01*
X2823Y-3604D01*
X2769Y-3593D01*
D02*
G37*
G36*
X1180Y-4309D02*
X1004D01*
X929Y-4318D01*
X859Y-4347D01*
X799Y-4393D01*
X753Y-4453D01*
X725Y-4523D01*
X715Y-4597D01*
Y-5010D01*
X1180D01*
Y-4309D01*
D02*
G37*
%LPD*%
D64*
X2600Y-2600D02*
X2800Y-2800D01*
X2600Y-2600D02*
Y800D01*
D65*
X695Y-2598D02*
X1552D01*
X1900Y-2250D01*
Y469D01*
D67*
X66Y816D02*
Y3150D01*
X-500Y250D02*
X66Y816D01*
X-1250Y3150D02*
X-177D01*
X217Y3397D02*
X870Y2743D01*
Y870D02*
Y2743D01*
X217Y3397D02*
Y3657D01*
X1102Y731D02*
Y2780D01*
X935Y564D02*
X1102Y731D01*
X935Y-1762D02*
Y564D01*
X550Y3573D02*
X615Y3508D01*
Y3268D02*
Y3508D01*
Y3268D02*
X1102Y2780D01*
X433Y433D02*
X870Y870D01*
X433Y-1762D02*
Y433D01*
X161Y-2274D02*
X768D01*
X-1000Y-1112D02*
X161Y-2274D01*
X-1000Y-1112D02*
Y900D01*
X207Y-2057D02*
X876D01*
X-500Y-1350D02*
X207Y-2057D01*
X-500Y-1350D02*
Y250D01*
X-1000Y900D02*
X-350Y1550D01*
X876Y-2057D02*
X1093Y-2274D01*
X-1307Y2093D02*
X-450D01*
X-1950Y2650D02*
X-1250Y3350D01*
X-4950Y2650D02*
X-1950D01*
X-4950Y2150D02*
X-2000D01*
X-4950Y1650D02*
X-2000D01*
X-1250Y3350D02*
X-400D01*
X-2000Y1400D02*
X-1307Y2093D01*
X-1300Y2350D02*
X-450D01*
X-2000Y1650D02*
X-1300Y2350D01*
X-1250Y2900D02*
X-550D01*
X-2000Y2150D02*
X-1250Y2900D01*
X-1313Y2603D02*
X-546D01*
X-2000Y1916D02*
X-1313Y2603D01*
X-2000Y2400D02*
X-1250Y3150D01*
D74*
X1230Y-5060D02*
D03*
D76*
X1407Y2240D02*
D03*
X541D02*
D03*
Y1374D02*
D03*
X1407D02*
D03*
D77*
X695Y-2598D02*
D03*
X4104Y80D02*
D03*
X66Y3150D02*
D03*
X-177D02*
D03*
X200Y-300D02*
D03*
X1230D02*
D03*
X1653Y-1083D02*
D03*
X768Y-2274D02*
D03*
X1093D02*
D03*
X433Y-1762D02*
D03*
X935D02*
D03*
X2046Y3878D02*
D03*
X3839Y4364D02*
D03*
X3511Y4277D02*
D03*
X3171Y4279D02*
D03*
X2843Y4368D02*
D03*
X2074Y5291D02*
D03*
X2046Y5630D02*
D03*
X4134Y4533D02*
D03*
X974Y3190D02*
D03*
X1438Y3140D02*
D03*
X1622Y4727D02*
D03*
X2297Y4127D02*
D03*
X2509Y4339D02*
D03*
X1355Y4459D02*
D03*
X827Y3739D02*
D03*
X805Y3440D02*
D03*
X1598Y3428D02*
D03*
X1803Y3647D02*
D03*
X550Y3573D02*
D03*
X217Y3657D02*
D03*
X2800Y-2800D02*
D03*
X2600Y800D02*
D03*
X-350Y1550D02*
D03*
X-450Y2093D02*
D03*
X3248Y575D02*
D03*
X1900Y469D02*
D03*
X-4950Y2650D02*
D03*
Y2150D02*
D03*
Y1650D02*
D03*
X-400Y3350D02*
D03*
X-2000Y1400D02*
D03*
Y1916D02*
D03*
Y2400D02*
D03*
X-550Y2900D02*
D03*
X-450Y2350D02*
D03*
X-546Y2603D02*
D03*
D78*
X-1612Y-3000D02*
D03*
X-1200Y-2549D02*
D03*
X5650Y2500D02*
D03*
Y1000D02*
D03*
X6025Y250D02*
D03*
X5650Y-500D02*
D03*
X6025Y-1250D02*
D03*
X5650Y-2000D02*
D03*
X5275Y3250D02*
D03*
X4900Y2500D02*
D03*
X5275Y1750D02*
D03*
Y250D02*
D03*
X4900Y-500D02*
D03*
X5275Y-1250D02*
D03*
X4150Y4000D02*
D03*
X4525Y3250D02*
D03*
X4150Y2500D02*
D03*
X4525Y-1250D02*
D03*
Y-4250D02*
D03*
X3775Y-1250D02*
D03*
Y-2750D02*
D03*
X775Y4750D02*
D03*
X400Y4000D02*
D03*
X25Y4750D02*
D03*
X-1100Y4000D02*
D03*
Y-2000D02*
D03*
Y-3500D02*
D03*
Y-5000D02*
D03*
X-2225Y-2750D02*
D03*
X-2600Y-5000D02*
D03*
X-2975Y4750D02*
D03*
Y3250D02*
D03*
Y-4250D02*
D03*
X-3350Y-5000D02*
D03*
X-3725Y3250D02*
D03*
Y-4250D02*
D03*
X-4475Y3250D02*
D03*
X-4850Y-500D02*
D03*
Y-2000D02*
D03*
Y-3500D02*
D03*
X-4475Y-4250D02*
D03*
X-5225Y3250D02*
D03*
X-5600Y2500D02*
D03*
X-5225Y1750D02*
D03*
X-5600Y1000D02*
D03*
X-5225Y-1250D02*
D03*
X-5600Y-2000D02*
D03*
X-5225Y-2750D02*
D03*
M02*
