G04*
G04 #@! TF.GenerationSoftware,Altium Limited,Altium Designer,19.0.12 (326)*
G04*
G04 Layer_Color=9147313*
%FSLAX24Y24*%
%MOIN*%
G70*
G01*
G75*
G36*
X-1754Y541D02*
X-1806D01*
Y932D01*
X-2020Y541D01*
X-2075D01*
Y1039D01*
X-2024D01*
Y647D01*
X-1809Y1039D01*
X-1754D01*
Y541D01*
D02*
G37*
G36*
X-1492Y1047D02*
X-1481Y1046D01*
X-1461Y1043D01*
X-1452Y1040D01*
X-1443Y1038D01*
X-1436Y1036D01*
X-1428Y1033D01*
X-1422Y1030D01*
X-1416Y1028D01*
X-1411Y1025D01*
X-1406Y1023D01*
X-1403Y1021D01*
X-1401Y1019D01*
X-1399Y1019D01*
X-1398Y1018D01*
X-1390Y1012D01*
X-1383Y1006D01*
X-1369Y992D01*
X-1356Y977D01*
X-1346Y963D01*
X-1342Y956D01*
X-1338Y950D01*
X-1334Y944D01*
X-1332Y939D01*
X-1330Y935D01*
X-1328Y932D01*
X-1327Y930D01*
X-1327Y929D01*
X-1322Y917D01*
X-1318Y906D01*
X-1311Y882D01*
X-1306Y858D01*
X-1304Y846D01*
X-1303Y836D01*
X-1302Y826D01*
X-1301Y817D01*
X-1300Y808D01*
Y801D01*
X-1299Y796D01*
Y791D01*
Y789D01*
Y787D01*
X-1300Y773D01*
X-1300Y759D01*
X-1302Y745D01*
X-1303Y732D01*
X-1306Y720D01*
X-1308Y709D01*
X-1310Y698D01*
X-1313Y689D01*
X-1315Y680D01*
X-1317Y673D01*
X-1320Y666D01*
X-1322Y660D01*
X-1324Y656D01*
X-1325Y653D01*
X-1326Y650D01*
Y650D01*
X-1331Y639D01*
X-1337Y629D01*
X-1343Y621D01*
X-1349Y612D01*
X-1355Y604D01*
X-1362Y597D01*
X-1367Y591D01*
X-1373Y585D01*
X-1379Y580D01*
X-1384Y575D01*
X-1388Y572D01*
X-1392Y569D01*
X-1395Y566D01*
X-1398Y564D01*
X-1399Y563D01*
X-1400Y563D01*
X-1409Y558D01*
X-1418Y553D01*
X-1427Y549D01*
X-1437Y546D01*
X-1455Y540D01*
X-1471Y537D01*
X-1479Y536D01*
X-1485Y535D01*
X-1492Y534D01*
X-1497Y534D01*
X-1501Y533D01*
X-1507D01*
X-1524Y534D01*
X-1539Y536D01*
X-1554Y539D01*
X-1567Y543D01*
X-1573Y545D01*
X-1578Y547D01*
X-1583Y548D01*
X-1587Y549D01*
X-1590Y551D01*
X-1592Y552D01*
X-1593Y552D01*
X-1594D01*
X-1609Y561D01*
X-1625Y570D01*
X-1639Y579D01*
X-1651Y589D01*
X-1657Y593D01*
X-1661Y597D01*
X-1666Y601D01*
X-1669Y604D01*
X-1672Y607D01*
X-1675Y609D01*
X-1676Y610D01*
X-1676Y611D01*
Y796D01*
X-1504Y796D01*
Y737D01*
X-1623D01*
Y644D01*
X-1615Y636D01*
X-1606Y629D01*
X-1598Y624D01*
X-1589Y618D01*
X-1581Y614D01*
X-1576Y611D01*
X-1573Y610D01*
X-1571Y608D01*
X-1570Y608D01*
X-1570D01*
X-1557Y603D01*
X-1546Y599D01*
X-1535Y596D01*
X-1525Y594D01*
X-1517Y593D01*
X-1510Y593D01*
X-1505D01*
X-1493Y593D01*
X-1481Y595D01*
X-1470Y597D01*
X-1460Y600D01*
X-1450Y604D01*
X-1441Y608D01*
X-1433Y613D01*
X-1426Y618D01*
X-1419Y622D01*
X-1413Y626D01*
X-1408Y631D01*
X-1404Y635D01*
X-1401Y638D01*
X-1398Y640D01*
X-1397Y642D01*
X-1397Y642D01*
X-1390Y652D01*
X-1383Y663D01*
X-1377Y674D01*
X-1373Y687D01*
X-1369Y699D01*
X-1365Y711D01*
X-1363Y723D01*
X-1360Y735D01*
X-1359Y747D01*
X-1358Y757D01*
X-1356Y767D01*
X-1356Y775D01*
X-1355Y782D01*
Y787D01*
Y790D01*
Y791D01*
X-1356Y815D01*
X-1357Y826D01*
X-1358Y836D01*
X-1360Y846D01*
X-1361Y855D01*
X-1363Y864D01*
X-1365Y871D01*
X-1367Y878D01*
X-1369Y884D01*
X-1370Y890D01*
X-1372Y894D01*
X-1373Y898D01*
X-1374Y900D01*
X-1374Y902D01*
Y902D01*
X-1382Y918D01*
X-1391Y932D01*
X-1399Y944D01*
X-1407Y953D01*
X-1415Y960D01*
X-1420Y965D01*
X-1423Y967D01*
X-1425Y968D01*
X-1425Y969D01*
X-1426D01*
X-1438Y976D01*
X-1451Y981D01*
X-1464Y986D01*
X-1476Y988D01*
X-1486Y990D01*
X-1491Y990D01*
X-1495D01*
X-1498Y991D01*
X-1502D01*
X-1513Y990D01*
X-1524Y989D01*
X-1533Y987D01*
X-1541Y985D01*
X-1548Y983D01*
X-1553Y980D01*
X-1556Y979D01*
X-1557Y979D01*
X-1566Y974D01*
X-1573Y969D01*
X-1580Y963D01*
X-1586Y958D01*
X-1591Y953D01*
X-1594Y949D01*
X-1596Y947D01*
X-1597Y946D01*
X-1602Y937D01*
X-1607Y927D01*
X-1611Y917D01*
X-1615Y907D01*
X-1618Y898D01*
X-1619Y894D01*
X-1620Y891D01*
X-1620Y888D01*
X-1621Y885D01*
X-1622Y884D01*
Y884D01*
X-1670Y900D01*
X-1665Y919D01*
X-1660Y935D01*
X-1657Y943D01*
X-1655Y949D01*
X-1652Y956D01*
X-1649Y962D01*
X-1647Y966D01*
X-1644Y971D01*
X-1642Y975D01*
X-1640Y977D01*
X-1639Y980D01*
X-1638Y982D01*
X-1637Y983D01*
Y983D01*
X-1628Y994D01*
X-1619Y1004D01*
X-1610Y1012D01*
X-1601Y1018D01*
X-1593Y1023D01*
X-1587Y1028D01*
X-1585Y1029D01*
X-1583Y1030D01*
X-1582Y1030D01*
X-1581D01*
X-1569Y1036D01*
X-1555Y1040D01*
X-1542Y1043D01*
X-1530Y1045D01*
X-1519Y1047D01*
X-1515D01*
X-1511Y1047D01*
X-1503D01*
X-1492Y1047D01*
D02*
G37*
G36*
X-2165Y541D02*
X-2312D01*
X-2324Y542D01*
X-2335Y543D01*
X-2345Y544D01*
X-2354Y545D01*
X-2363Y547D01*
X-2372Y549D01*
X-2380Y551D01*
X-2387Y554D01*
X-2392Y556D01*
X-2398Y558D01*
X-2402Y560D01*
X-2406Y562D01*
X-2409Y563D01*
X-2412Y565D01*
X-2413Y566D01*
X-2413D01*
X-2420Y571D01*
X-2427Y576D01*
X-2440Y589D01*
X-2451Y603D01*
X-2460Y617D01*
X-2468Y629D01*
X-2470Y635D01*
X-2473Y640D01*
X-2475Y643D01*
X-2476Y647D01*
X-2477Y649D01*
Y649D01*
X-2482Y660D01*
X-2486Y673D01*
X-2492Y696D01*
X-2497Y720D01*
X-2498Y732D01*
X-2500Y743D01*
X-2500Y754D01*
X-2501Y763D01*
X-2502Y771D01*
Y779D01*
X-2503Y784D01*
Y789D01*
Y791D01*
Y793D01*
X-2502Y817D01*
X-2501Y828D01*
X-2500Y838D01*
X-2499Y848D01*
X-2498Y857D01*
X-2496Y866D01*
X-2495Y874D01*
X-2494Y881D01*
X-2492Y888D01*
X-2491Y893D01*
X-2490Y898D01*
X-2489Y902D01*
X-2488Y904D01*
X-2487Y906D01*
Y906D01*
X-2482Y923D01*
X-2475Y939D01*
X-2468Y952D01*
X-2462Y964D01*
X-2458Y969D01*
X-2456Y973D01*
X-2453Y977D01*
X-2451Y980D01*
X-2449Y983D01*
X-2448Y984D01*
X-2447Y985D01*
X-2447Y986D01*
X-2437Y997D01*
X-2426Y1006D01*
X-2416Y1013D01*
X-2406Y1019D01*
X-2398Y1024D01*
X-2391Y1027D01*
X-2389Y1028D01*
X-2387Y1029D01*
X-2386Y1029D01*
X-2385D01*
X-2380Y1031D01*
X-2374Y1032D01*
X-2361Y1035D01*
X-2348Y1036D01*
X-2335Y1037D01*
X-2324Y1038D01*
X-2318Y1039D01*
X-2165D01*
Y541D01*
D02*
G37*
G36*
X2658D02*
X2602D01*
X2442Y1039D01*
X2497D01*
X2608Y677D01*
X2613Y662D01*
X2617Y647D01*
X2620Y634D01*
X2623Y622D01*
X2625Y616D01*
X2626Y611D01*
X2627Y607D01*
X2628Y603D01*
X2628Y600D01*
X2629Y598D01*
X2630Y597D01*
Y596D01*
X2633Y611D01*
X2637Y625D01*
X2641Y639D01*
X2644Y652D01*
X2645Y657D01*
X2646Y662D01*
X2648Y666D01*
X2649Y670D01*
X2650Y673D01*
X2651Y675D01*
X2651Y677D01*
Y677D01*
X2757Y1039D01*
X2816D01*
X2658Y541D01*
D02*
G37*
G36*
X2014Y751D02*
X2013Y729D01*
X2012Y709D01*
X2010Y690D01*
X2008Y673D01*
X2005Y658D01*
X2001Y644D01*
X1998Y631D01*
X1994Y621D01*
X1991Y611D01*
X1987Y603D01*
X1984Y596D01*
X1981Y590D01*
X1978Y586D01*
X1976Y583D01*
X1975Y582D01*
X1974Y581D01*
X1966Y573D01*
X1957Y565D01*
X1948Y559D01*
X1939Y554D01*
X1928Y549D01*
X1918Y545D01*
X1908Y542D01*
X1899Y539D01*
X1890Y537D01*
X1881Y536D01*
X1873Y535D01*
X1867Y534D01*
X1861D01*
X1857Y533D01*
X1854D01*
X1843Y534D01*
X1833Y534D01*
X1815Y537D01*
X1806Y539D01*
X1799Y541D01*
X1792Y544D01*
X1785Y547D01*
X1780Y549D01*
X1774Y551D01*
X1770Y554D01*
X1766Y555D01*
X1763Y557D01*
X1761Y558D01*
X1760Y559D01*
X1760D01*
X1747Y570D01*
X1736Y582D01*
X1727Y594D01*
X1720Y606D01*
X1715Y617D01*
X1713Y621D01*
X1711Y625D01*
X1710Y628D01*
X1709Y631D01*
X1708Y632D01*
Y632D01*
X1706Y642D01*
X1704Y651D01*
X1700Y671D01*
X1697Y691D01*
X1696Y709D01*
X1695Y718D01*
X1694Y726D01*
Y733D01*
X1694Y739D01*
Y744D01*
Y748D01*
Y751D01*
Y751D01*
Y1039D01*
X1748D01*
Y752D01*
Y735D01*
X1749Y719D01*
X1750Y705D01*
X1752Y692D01*
X1754Y681D01*
X1756Y670D01*
X1759Y661D01*
X1761Y653D01*
X1764Y646D01*
X1766Y640D01*
X1768Y635D01*
X1770Y631D01*
X1772Y628D01*
X1773Y626D01*
X1774Y625D01*
X1774Y625D01*
X1780Y619D01*
X1785Y614D01*
X1791Y610D01*
X1798Y606D01*
X1812Y600D01*
X1825Y597D01*
X1838Y594D01*
X1843Y594D01*
X1848Y593D01*
X1852Y593D01*
X1857D01*
X1869Y593D01*
X1880Y595D01*
X1891Y598D01*
X1899Y601D01*
X1906Y603D01*
X1911Y606D01*
X1914Y608D01*
X1915Y608D01*
X1924Y615D01*
X1931Y622D01*
X1937Y630D01*
X1942Y637D01*
X1945Y643D01*
X1948Y649D01*
X1949Y653D01*
X1950Y653D01*
Y654D01*
X1952Y660D01*
X1953Y667D01*
X1956Y682D01*
X1957Y698D01*
X1959Y714D01*
X1959Y721D01*
Y729D01*
Y735D01*
X1960Y741D01*
Y745D01*
Y749D01*
Y751D01*
Y752D01*
Y1039D01*
X2014D01*
Y751D01*
D02*
G37*
G36*
X2396Y541D02*
X2241D01*
X2221Y542D01*
X2213Y543D01*
X2205Y544D01*
X2197Y545D01*
X2190Y546D01*
X2184Y548D01*
X2178Y549D01*
X2173Y550D01*
X2168Y552D01*
X2164Y553D01*
X2161Y554D01*
X2158Y555D01*
X2157Y556D01*
X2156Y556D01*
X2156D01*
X2145Y563D01*
X2135Y571D01*
X2126Y579D01*
X2119Y587D01*
X2114Y594D01*
X2110Y601D01*
X2108Y603D01*
X2107Y604D01*
X2106Y605D01*
Y606D01*
X2100Y619D01*
X2095Y633D01*
X2092Y646D01*
X2090Y659D01*
X2089Y670D01*
X2088Y674D01*
X2087Y678D01*
Y681D01*
Y684D01*
Y685D01*
Y685D01*
X2089Y702D01*
X2091Y716D01*
X2094Y730D01*
X2098Y741D01*
X2102Y749D01*
X2104Y753D01*
X2105Y756D01*
X2107Y759D01*
X2107Y761D01*
X2108Y761D01*
Y762D01*
X2117Y773D01*
X2126Y782D01*
X2135Y790D01*
X2144Y796D01*
X2152Y800D01*
X2158Y804D01*
X2161Y805D01*
X2163Y805D01*
X2164Y806D01*
X2164D01*
X2155Y812D01*
X2146Y820D01*
X2139Y827D01*
X2133Y834D01*
X2129Y840D01*
X2125Y845D01*
X2123Y849D01*
X2122Y849D01*
Y850D01*
X2117Y860D01*
X2114Y871D01*
X2111Y882D01*
X2109Y891D01*
X2108Y899D01*
X2107Y906D01*
Y908D01*
Y910D01*
Y911D01*
Y912D01*
X2108Y925D01*
X2110Y938D01*
X2112Y949D01*
X2116Y959D01*
X2119Y968D01*
X2122Y974D01*
X2123Y976D01*
X2124Y978D01*
X2125Y979D01*
Y979D01*
X2132Y990D01*
X2139Y999D01*
X2147Y1007D01*
X2154Y1013D01*
X2160Y1018D01*
X2165Y1021D01*
X2168Y1023D01*
X2169Y1024D01*
X2170D01*
X2181Y1029D01*
X2192Y1032D01*
X2205Y1035D01*
X2216Y1037D01*
X2227Y1038D01*
X2231D01*
X2235Y1039D01*
X2396D01*
Y541D01*
D02*
G37*
G36*
X1473Y1047D02*
X1485Y1046D01*
X1496Y1044D01*
X1506Y1042D01*
X1515Y1039D01*
X1524Y1035D01*
X1531Y1032D01*
X1538Y1028D01*
X1545Y1025D01*
X1550Y1021D01*
X1555Y1018D01*
X1559Y1015D01*
X1562Y1012D01*
X1564Y1011D01*
X1566Y1009D01*
X1566Y1009D01*
X1573Y1001D01*
X1579Y994D01*
X1584Y986D01*
X1589Y977D01*
X1592Y969D01*
X1596Y961D01*
X1601Y945D01*
X1602Y938D01*
X1603Y931D01*
X1604Y926D01*
X1605Y920D01*
X1605Y916D01*
Y913D01*
Y911D01*
Y910D01*
X1605Y898D01*
X1603Y886D01*
X1601Y877D01*
X1598Y867D01*
X1596Y860D01*
X1594Y854D01*
X1592Y851D01*
X1592Y850D01*
Y850D01*
X1587Y840D01*
X1580Y832D01*
X1574Y825D01*
X1568Y818D01*
X1562Y813D01*
X1558Y809D01*
X1555Y807D01*
X1554Y806D01*
X1549Y803D01*
X1543Y800D01*
X1531Y793D01*
X1517Y787D01*
X1504Y782D01*
X1492Y778D01*
X1486Y776D01*
X1481Y775D01*
X1477Y773D01*
X1474Y772D01*
X1472Y772D01*
X1472D01*
X1460Y768D01*
X1450Y765D01*
X1440Y762D01*
X1432Y759D01*
X1423Y756D01*
X1417Y754D01*
X1411Y752D01*
X1405Y749D01*
X1401Y748D01*
X1397Y746D01*
X1394Y745D01*
X1392Y744D01*
X1390Y743D01*
X1389Y742D01*
X1388Y742D01*
X1381Y738D01*
X1375Y733D01*
X1370Y729D01*
X1366Y724D01*
X1362Y721D01*
X1360Y718D01*
X1359Y716D01*
X1358Y715D01*
X1355Y709D01*
X1352Y702D01*
X1350Y696D01*
X1349Y690D01*
X1349Y685D01*
X1348Y680D01*
Y678D01*
Y677D01*
Y670D01*
X1349Y663D01*
X1352Y652D01*
X1357Y641D01*
X1362Y632D01*
X1366Y625D01*
X1371Y620D01*
X1374Y617D01*
X1374Y616D01*
X1375D01*
X1386Y608D01*
X1398Y603D01*
X1411Y598D01*
X1422Y596D01*
X1433Y594D01*
X1438Y593D01*
X1441D01*
X1445Y593D01*
X1450D01*
X1462Y593D01*
X1473Y595D01*
X1483Y597D01*
X1493Y600D01*
X1500Y602D01*
X1506Y604D01*
X1509Y605D01*
X1510Y606D01*
X1510D01*
X1520Y612D01*
X1528Y618D01*
X1535Y624D01*
X1541Y630D01*
X1546Y635D01*
X1549Y639D01*
X1551Y642D01*
X1552Y643D01*
X1556Y652D01*
X1560Y663D01*
X1564Y674D01*
X1566Y684D01*
X1568Y693D01*
X1569Y697D01*
X1569Y701D01*
Y703D01*
X1570Y706D01*
Y707D01*
Y707D01*
X1621Y703D01*
X1620Y688D01*
X1619Y675D01*
X1616Y662D01*
X1613Y650D01*
X1610Y639D01*
X1606Y629D01*
X1602Y619D01*
X1598Y611D01*
X1593Y604D01*
X1589Y597D01*
X1585Y591D01*
X1582Y587D01*
X1579Y583D01*
X1577Y581D01*
X1576Y579D01*
X1575Y579D01*
X1566Y570D01*
X1557Y563D01*
X1547Y558D01*
X1537Y552D01*
X1527Y548D01*
X1517Y544D01*
X1507Y541D01*
X1497Y539D01*
X1488Y537D01*
X1480Y536D01*
X1473Y534D01*
X1466Y534D01*
X1461D01*
X1457Y533D01*
X1454D01*
X1436Y534D01*
X1420Y536D01*
X1406Y539D01*
X1394Y543D01*
X1389Y544D01*
X1384Y545D01*
X1380Y547D01*
X1377Y548D01*
X1374Y549D01*
X1373Y551D01*
X1371Y551D01*
X1371D01*
X1359Y559D01*
X1348Y567D01*
X1338Y576D01*
X1330Y584D01*
X1324Y592D01*
X1320Y598D01*
X1318Y601D01*
X1317Y603D01*
X1316Y604D01*
Y604D01*
X1309Y618D01*
X1304Y631D01*
X1301Y644D01*
X1298Y656D01*
X1297Y667D01*
X1296Y671D01*
Y675D01*
X1296Y678D01*
Y680D01*
Y681D01*
Y682D01*
X1296Y698D01*
X1299Y712D01*
X1301Y724D01*
X1305Y735D01*
X1309Y744D01*
X1310Y747D01*
X1312Y751D01*
X1313Y753D01*
X1314Y755D01*
X1315Y755D01*
Y756D01*
X1323Y767D01*
X1332Y777D01*
X1341Y786D01*
X1350Y793D01*
X1359Y798D01*
X1365Y803D01*
X1368Y804D01*
X1370Y805D01*
X1371Y806D01*
X1371D01*
X1377Y808D01*
X1382Y811D01*
X1395Y816D01*
X1409Y821D01*
X1423Y825D01*
X1436Y829D01*
X1442Y831D01*
X1447Y832D01*
X1451Y833D01*
X1454Y835D01*
X1456Y835D01*
X1457D01*
X1468Y838D01*
X1478Y842D01*
X1487Y844D01*
X1495Y847D01*
X1502Y850D01*
X1509Y853D01*
X1514Y856D01*
X1520Y858D01*
X1524Y861D01*
X1527Y863D01*
X1530Y864D01*
X1532Y866D01*
X1535Y868D01*
X1536Y869D01*
X1542Y876D01*
X1546Y883D01*
X1549Y891D01*
X1551Y899D01*
X1552Y905D01*
X1553Y910D01*
X1553Y914D01*
Y915D01*
Y916D01*
X1552Y927D01*
X1550Y937D01*
X1546Y947D01*
X1541Y954D01*
X1537Y960D01*
X1533Y965D01*
X1531Y967D01*
X1529Y968D01*
X1520Y975D01*
X1508Y980D01*
X1497Y984D01*
X1486Y987D01*
X1475Y988D01*
X1471Y988D01*
X1467D01*
X1464Y989D01*
X1459D01*
X1443Y988D01*
X1429Y986D01*
X1417Y981D01*
X1407Y977D01*
X1399Y973D01*
X1394Y969D01*
X1390Y966D01*
X1389Y965D01*
X1380Y955D01*
X1374Y944D01*
X1369Y933D01*
X1365Y921D01*
X1362Y910D01*
X1362Y906D01*
X1361Y902D01*
X1360Y899D01*
X1360Y896D01*
Y895D01*
Y894D01*
X1308Y899D01*
X1309Y915D01*
X1312Y930D01*
X1315Y944D01*
X1319Y955D01*
X1321Y960D01*
X1322Y965D01*
X1324Y968D01*
X1326Y972D01*
X1327Y974D01*
X1328Y976D01*
X1329Y977D01*
Y977D01*
X1336Y990D01*
X1345Y1000D01*
X1354Y1009D01*
X1362Y1016D01*
X1370Y1022D01*
X1376Y1026D01*
X1378Y1028D01*
X1380Y1029D01*
X1381Y1029D01*
X1382D01*
X1395Y1035D01*
X1409Y1040D01*
X1422Y1043D01*
X1434Y1045D01*
X1445Y1046D01*
X1450Y1047D01*
X1454Y1047D01*
X1461D01*
X1473Y1047D01*
D02*
G37*
%LPC*%
G36*
X-2219Y980D02*
X-2313D01*
X-2321Y979D01*
X-2328Y979D01*
X-2335Y978D01*
X-2347Y977D01*
X-2356Y975D01*
X-2364Y973D01*
X-2369Y972D01*
X-2372Y970D01*
X-2373Y970D01*
X-2379Y967D01*
X-2385Y963D01*
X-2395Y955D01*
X-2404Y945D01*
X-2412Y935D01*
X-2417Y926D01*
X-2420Y922D01*
X-2422Y919D01*
X-2423Y916D01*
X-2424Y913D01*
X-2426Y912D01*
Y912D01*
X-2429Y903D01*
X-2433Y894D01*
X-2438Y875D01*
X-2441Y855D01*
X-2444Y836D01*
X-2445Y828D01*
X-2445Y819D01*
X-2446Y812D01*
Y805D01*
X-2447Y800D01*
Y797D01*
Y794D01*
Y793D01*
X-2446Y768D01*
X-2445Y756D01*
X-2444Y744D01*
X-2442Y734D01*
X-2440Y724D01*
X-2438Y714D01*
X-2437Y706D01*
X-2435Y699D01*
X-2433Y692D01*
X-2431Y686D01*
X-2430Y681D01*
X-2428Y677D01*
X-2427Y674D01*
X-2427Y673D01*
Y672D01*
X-2421Y659D01*
X-2414Y647D01*
X-2407Y638D01*
X-2401Y631D01*
X-2394Y625D01*
X-2389Y621D01*
X-2386Y618D01*
X-2385Y617D01*
X-2385D01*
X-2380Y614D01*
X-2374Y611D01*
X-2361Y607D01*
X-2348Y604D01*
X-2335Y603D01*
X-2324Y601D01*
X-2318Y601D01*
X-2314Y600D01*
X-2219D01*
Y980D01*
D02*
G37*
G36*
X2342D02*
X2245D01*
X2238Y979D01*
X2231Y979D01*
X2221Y977D01*
X2213Y976D01*
X2206Y975D01*
X2202Y974D01*
X2199Y973D01*
X2199Y973D01*
X2192Y970D01*
X2187Y966D01*
X2182Y962D01*
X2178Y958D01*
X2175Y954D01*
X2173Y951D01*
X2171Y948D01*
X2171Y948D01*
X2167Y941D01*
X2165Y934D01*
X2163Y926D01*
X2161Y919D01*
X2161Y913D01*
X2160Y909D01*
Y905D01*
Y905D01*
Y904D01*
X2161Y893D01*
X2162Y885D01*
X2164Y877D01*
X2166Y870D01*
X2168Y865D01*
X2170Y861D01*
X2171Y858D01*
X2172Y858D01*
X2177Y852D01*
X2182Y847D01*
X2187Y843D01*
X2192Y840D01*
X2198Y838D01*
X2201Y836D01*
X2203Y835D01*
X2205Y835D01*
X2211Y833D01*
X2219Y832D01*
X2227Y831D01*
X2234Y831D01*
X2242Y830D01*
X2342D01*
Y980D01*
D02*
G37*
G36*
Y771D02*
X2248D01*
X2233Y770D01*
X2220Y770D01*
X2210Y768D01*
X2201Y766D01*
X2195Y765D01*
X2190Y763D01*
X2188Y762D01*
X2186Y762D01*
X2179Y758D01*
X2173Y754D01*
X2168Y749D01*
X2163Y744D01*
X2160Y740D01*
X2157Y737D01*
X2156Y734D01*
X2155Y733D01*
X2151Y726D01*
X2148Y717D01*
X2146Y710D01*
X2145Y702D01*
X2144Y696D01*
X2143Y691D01*
Y687D01*
Y687D01*
Y686D01*
X2144Y675D01*
X2145Y665D01*
X2147Y656D01*
X2149Y649D01*
X2152Y643D01*
X2154Y638D01*
X2155Y636D01*
X2156Y635D01*
X2161Y628D01*
X2166Y622D01*
X2172Y617D01*
X2178Y613D01*
X2183Y610D01*
X2187Y608D01*
X2189Y607D01*
X2191Y606D01*
X2198Y604D01*
X2205Y603D01*
X2213Y601D01*
X2221Y601D01*
X2228D01*
X2235Y600D01*
X2342D01*
Y771D01*
D02*
G37*
%LPD*%
M02*
