G04*
G04 #@! TF.GenerationSoftware,Altium Limited,Altium Designer,19.0.12 (326)*
G04*
G04 Layer_Color=16777215*
%FSLAX24Y24*%
%MOIN*%
G70*
G01*
G75*
%ADD10C,0.0039*%
%ADD11C,0.0010*%
G36*
X-2274Y1047D02*
X-2270D01*
X-2259Y1045D01*
X-2247Y1043D01*
X-2234Y1040D01*
X-2221Y1036D01*
X-2208Y1030D01*
X-2207D01*
X-2206Y1030D01*
X-2204Y1029D01*
X-2202Y1028D01*
X-2196Y1023D01*
X-2188Y1018D01*
X-2179Y1012D01*
X-2170Y1004D01*
X-2161Y994D01*
X-2153Y983D01*
Y983D01*
X-2151Y982D01*
X-2150Y980D01*
X-2149Y977D01*
X-2147Y975D01*
X-2145Y971D01*
X-2143Y966D01*
X-2140Y962D01*
X-2137Y956D01*
X-2135Y949D01*
X-2132Y943D01*
X-2129Y935D01*
X-2124Y919D01*
X-2119Y900D01*
X-2168Y884D01*
Y884D01*
X-2168Y885D01*
X-2169Y888D01*
X-2170Y891D01*
X-2171Y894D01*
X-2172Y898D01*
X-2175Y907D01*
X-2178Y917D01*
X-2182Y927D01*
X-2188Y937D01*
X-2193Y946D01*
X-2193Y947D01*
X-2196Y949D01*
X-2199Y953D01*
X-2203Y958D01*
X-2209Y963D01*
X-2216Y969D01*
X-2224Y974D01*
X-2232Y979D01*
X-2234Y979D01*
X-2237Y980D01*
X-2242Y983D01*
X-2248Y985D01*
X-2256Y987D01*
X-2266Y989D01*
X-2276Y990D01*
X-2287Y991D01*
X-2291D01*
X-2295Y990D01*
X-2298D01*
X-2303Y990D01*
X-2314Y988D01*
X-2325Y986D01*
X-2338Y981D01*
X-2351Y976D01*
X-2364Y969D01*
X-2364D01*
X-2365Y968D01*
X-2367Y967D01*
X-2369Y965D01*
X-2375Y960D01*
X-2382Y953D01*
X-2390Y944D01*
X-2399Y932D01*
X-2407Y918D01*
X-2415Y902D01*
Y902D01*
X-2416Y900D01*
X-2417Y898D01*
X-2418Y894D01*
X-2420Y890D01*
X-2421Y884D01*
X-2423Y878D01*
X-2424Y871D01*
X-2427Y864D01*
X-2428Y855D01*
X-2430Y846D01*
X-2431Y836D01*
X-2432Y826D01*
X-2434Y815D01*
X-2434Y791D01*
Y790D01*
Y787D01*
Y782D01*
X-2434Y775D01*
X-2433Y767D01*
X-2432Y757D01*
X-2431Y747D01*
X-2429Y735D01*
X-2427Y723D01*
X-2424Y711D01*
X-2421Y699D01*
X-2417Y687D01*
X-2412Y674D01*
X-2406Y663D01*
X-2400Y652D01*
X-2393Y642D01*
X-2392Y642D01*
X-2391Y640D01*
X-2389Y638D01*
X-2385Y635D01*
X-2381Y631D01*
X-2376Y626D01*
X-2370Y622D01*
X-2364Y618D01*
X-2356Y613D01*
X-2348Y608D01*
X-2339Y604D01*
X-2330Y600D01*
X-2319Y597D01*
X-2308Y595D01*
X-2297Y593D01*
X-2284Y593D01*
X-2279D01*
X-2273Y593D01*
X-2265Y594D01*
X-2255Y596D01*
X-2244Y599D01*
X-2232Y603D01*
X-2220Y608D01*
X-2219D01*
X-2218Y608D01*
X-2216Y610D01*
X-2214Y611D01*
X-2208Y614D01*
X-2200Y618D01*
X-2192Y624D01*
X-2183Y629D01*
X-2174Y636D01*
X-2166Y644D01*
Y737D01*
X-2286D01*
Y796D01*
X-2113Y796D01*
Y611D01*
X-2114Y610D01*
X-2115Y609D01*
X-2117Y607D01*
X-2120Y604D01*
X-2123Y601D01*
X-2128Y597D01*
X-2133Y593D01*
X-2139Y589D01*
X-2151Y579D01*
X-2165Y570D01*
X-2180Y561D01*
X-2196Y552D01*
X-2196D01*
X-2197Y552D01*
X-2200Y551D01*
X-2203Y549D01*
X-2207Y548D01*
X-2211Y547D01*
X-2217Y545D01*
X-2223Y543D01*
X-2235Y539D01*
X-2250Y536D01*
X-2266Y534D01*
X-2283Y533D01*
X-2288D01*
X-2293Y534D01*
X-2298Y534D01*
X-2304Y535D01*
X-2311Y536D01*
X-2318Y537D01*
X-2334Y540D01*
X-2353Y546D01*
X-2362Y549D01*
X-2371Y553D01*
X-2381Y558D01*
X-2389Y563D01*
X-2390Y563D01*
X-2391Y564D01*
X-2394Y566D01*
X-2397Y569D01*
X-2401Y572D01*
X-2406Y575D01*
X-2410Y580D01*
X-2416Y585D01*
X-2422Y591D01*
X-2428Y597D01*
X-2434Y604D01*
X-2440Y612D01*
X-2446Y621D01*
X-2452Y629D01*
X-2458Y639D01*
X-2463Y650D01*
Y650D01*
X-2465Y653D01*
X-2466Y656D01*
X-2467Y660D01*
X-2470Y666D01*
X-2472Y673D01*
X-2474Y680D01*
X-2477Y689D01*
X-2479Y698D01*
X-2481Y709D01*
X-2484Y720D01*
X-2486Y732D01*
X-2488Y745D01*
X-2489Y759D01*
X-2490Y773D01*
X-2490Y787D01*
Y789D01*
Y791D01*
Y796D01*
X-2490Y801D01*
Y808D01*
X-2488Y817D01*
X-2488Y826D01*
X-2487Y836D01*
X-2485Y846D01*
X-2483Y858D01*
X-2479Y882D01*
X-2472Y906D01*
X-2467Y917D01*
X-2463Y929D01*
X-2462Y930D01*
X-2462Y932D01*
X-2460Y935D01*
X-2458Y939D01*
X-2455Y944D01*
X-2452Y950D01*
X-2448Y956D01*
X-2444Y963D01*
X-2433Y977D01*
X-2421Y992D01*
X-2407Y1006D01*
X-2399Y1012D01*
X-2391Y1018D01*
X-2390Y1019D01*
X-2389Y1019D01*
X-2386Y1021D01*
X-2383Y1023D01*
X-2379Y1025D01*
X-2374Y1028D01*
X-2368Y1030D01*
X-2361Y1033D01*
X-2354Y1036D01*
X-2346Y1038D01*
X-2337Y1040D01*
X-2328Y1043D01*
X-2308Y1046D01*
X-2297Y1047D01*
X-2286Y1047D01*
X-2279D01*
X-2274Y1047D01*
D02*
G37*
G36*
X-1714Y541D02*
X-1770D01*
X-1984Y932D01*
Y541D01*
X-2035D01*
Y1039D01*
X-1981D01*
X-1765Y647D01*
Y1039D01*
X-1714D01*
Y541D01*
D02*
G37*
G36*
X-1466Y1038D02*
X-1454Y1037D01*
X-1441Y1036D01*
X-1428Y1035D01*
X-1415Y1032D01*
X-1409Y1031D01*
X-1404Y1029D01*
X-1403D01*
X-1402Y1029D01*
X-1401Y1028D01*
X-1398Y1027D01*
X-1391Y1024D01*
X-1383Y1019D01*
X-1374Y1013D01*
X-1363Y1006D01*
X-1353Y997D01*
X-1343Y986D01*
X-1342Y985D01*
X-1342Y984D01*
X-1340Y983D01*
X-1339Y980D01*
X-1336Y977D01*
X-1333Y973D01*
X-1331Y969D01*
X-1328Y964D01*
X-1321Y952D01*
X-1314Y939D01*
X-1308Y923D01*
X-1302Y906D01*
Y906D01*
X-1301Y904D01*
X-1301Y902D01*
X-1300Y898D01*
X-1299Y893D01*
X-1297Y888D01*
X-1296Y881D01*
X-1294Y874D01*
X-1293Y866D01*
X-1292Y857D01*
X-1290Y848D01*
X-1289Y838D01*
X-1288Y828D01*
X-1287Y817D01*
X-1287Y793D01*
Y791D01*
Y789D01*
Y784D01*
X-1287Y779D01*
Y771D01*
X-1288Y763D01*
X-1289Y754D01*
X-1290Y743D01*
X-1292Y732D01*
X-1293Y720D01*
X-1297Y696D01*
X-1304Y673D01*
X-1307Y660D01*
X-1312Y649D01*
Y649D01*
X-1313Y647D01*
X-1314Y643D01*
X-1317Y640D01*
X-1319Y635D01*
X-1322Y629D01*
X-1329Y617D01*
X-1339Y603D01*
X-1350Y589D01*
X-1362Y576D01*
X-1369Y571D01*
X-1376Y566D01*
X-1377D01*
X-1378Y565D01*
X-1380Y563D01*
X-1383Y562D01*
X-1387Y560D01*
X-1392Y558D01*
X-1397Y556D01*
X-1403Y554D01*
X-1410Y551D01*
X-1417Y549D01*
X-1426Y547D01*
X-1435Y545D01*
X-1445Y544D01*
X-1455Y543D01*
X-1466Y542D01*
X-1477Y541D01*
X-1624D01*
Y1039D01*
X-1471D01*
X-1466Y1038D01*
D02*
G37*
G36*
X2665Y1047D02*
X2669Y1046D01*
X2680Y1045D01*
X2693Y1043D01*
X2705Y1040D01*
X2719Y1035D01*
X2732Y1029D01*
X2733D01*
X2734Y1029D01*
X2736Y1028D01*
X2738Y1026D01*
X2744Y1022D01*
X2752Y1016D01*
X2760Y1009D01*
X2769Y1000D01*
X2778Y990D01*
X2785Y977D01*
Y977D01*
X2786Y976D01*
X2787Y974D01*
X2788Y972D01*
X2790Y968D01*
X2792Y965D01*
X2793Y960D01*
X2795Y955D01*
X2799Y944D01*
X2802Y930D01*
X2805Y915D01*
X2806Y899D01*
X2754Y894D01*
Y895D01*
Y896D01*
X2754Y899D01*
X2753Y902D01*
X2753Y906D01*
X2752Y910D01*
X2749Y921D01*
X2746Y933D01*
X2740Y944D01*
X2734Y955D01*
X2725Y965D01*
X2724Y966D01*
X2721Y969D01*
X2715Y973D01*
X2707Y977D01*
X2697Y981D01*
X2685Y986D01*
X2671Y988D01*
X2655Y989D01*
X2650D01*
X2647Y988D01*
X2643D01*
X2639Y988D01*
X2628Y987D01*
X2617Y984D01*
X2606Y980D01*
X2595Y975D01*
X2585Y968D01*
X2584Y967D01*
X2581Y965D01*
X2577Y960D01*
X2573Y954D01*
X2568Y947D01*
X2564Y937D01*
X2562Y927D01*
X2561Y916D01*
Y915D01*
Y914D01*
X2561Y910D01*
X2562Y905D01*
X2563Y899D01*
X2565Y891D01*
X2568Y883D01*
X2572Y876D01*
X2578Y869D01*
X2579Y868D01*
X2582Y866D01*
X2584Y864D01*
X2587Y863D01*
X2591Y861D01*
X2595Y858D01*
X2600Y856D01*
X2605Y853D01*
X2612Y850D01*
X2619Y847D01*
X2627Y844D01*
X2637Y842D01*
X2647Y838D01*
X2658Y835D01*
X2658D01*
X2661Y835D01*
X2663Y833D01*
X2668Y832D01*
X2672Y831D01*
X2678Y829D01*
X2691Y825D01*
X2705Y821D01*
X2719Y816D01*
X2732Y811D01*
X2737Y808D01*
X2743Y806D01*
X2743D01*
X2744Y805D01*
X2746Y804D01*
X2749Y803D01*
X2756Y798D01*
X2764Y793D01*
X2773Y786D01*
X2782Y777D01*
X2791Y767D01*
X2799Y756D01*
Y755D01*
X2800Y755D01*
X2801Y753D01*
X2802Y751D01*
X2804Y747D01*
X2805Y744D01*
X2809Y735D01*
X2813Y724D01*
X2816Y712D01*
X2818Y698D01*
X2819Y682D01*
Y681D01*
Y680D01*
Y678D01*
X2818Y675D01*
Y671D01*
X2817Y667D01*
X2816Y656D01*
X2813Y644D01*
X2810Y631D01*
X2805Y618D01*
X2798Y604D01*
Y604D01*
X2797Y603D01*
X2796Y601D01*
X2795Y598D01*
X2790Y592D01*
X2784Y584D01*
X2776Y576D01*
X2767Y567D01*
X2756Y559D01*
X2743Y551D01*
X2743D01*
X2742Y551D01*
X2740Y549D01*
X2737Y548D01*
X2734Y547D01*
X2730Y545D01*
X2725Y544D01*
X2720Y543D01*
X2708Y539D01*
X2694Y536D01*
X2678Y534D01*
X2661Y533D01*
X2657D01*
X2654Y534D01*
X2648D01*
X2641Y534D01*
X2634Y536D01*
X2626Y537D01*
X2617Y539D01*
X2607Y541D01*
X2598Y544D01*
X2588Y548D01*
X2577Y552D01*
X2567Y558D01*
X2557Y563D01*
X2548Y570D01*
X2539Y579D01*
X2539Y579D01*
X2537Y581D01*
X2535Y583D01*
X2532Y587D01*
X2529Y591D01*
X2525Y597D01*
X2521Y604D01*
X2517Y611D01*
X2512Y619D01*
X2508Y629D01*
X2504Y639D01*
X2501Y650D01*
X2498Y662D01*
X2496Y675D01*
X2494Y688D01*
X2493Y703D01*
X2544Y707D01*
Y707D01*
Y706D01*
X2545Y703D01*
Y701D01*
X2546Y697D01*
X2546Y693D01*
X2548Y684D01*
X2550Y674D01*
X2554Y663D01*
X2558Y652D01*
X2563Y643D01*
X2563Y642D01*
X2565Y639D01*
X2568Y635D01*
X2573Y630D01*
X2579Y624D01*
X2586Y618D01*
X2595Y612D01*
X2604Y606D01*
X2605D01*
X2605Y605D01*
X2609Y604D01*
X2614Y602D01*
X2621Y600D01*
X2631Y597D01*
X2641Y595D01*
X2652Y593D01*
X2665Y593D01*
X2669D01*
X2673Y593D01*
X2676D01*
X2681Y594D01*
X2692Y596D01*
X2704Y598D01*
X2716Y603D01*
X2728Y608D01*
X2739Y616D01*
X2740D01*
X2740Y617D01*
X2743Y620D01*
X2748Y625D01*
X2753Y632D01*
X2757Y641D01*
X2762Y652D01*
X2765Y663D01*
X2766Y670D01*
Y677D01*
Y678D01*
Y680D01*
X2765Y685D01*
X2765Y690D01*
X2764Y696D01*
X2762Y702D01*
X2760Y709D01*
X2756Y715D01*
X2756Y716D01*
X2754Y718D01*
X2752Y721D01*
X2749Y724D01*
X2744Y729D01*
X2739Y733D01*
X2733Y738D01*
X2726Y742D01*
X2725Y742D01*
X2724Y743D01*
X2722Y744D01*
X2720Y745D01*
X2717Y746D01*
X2713Y748D01*
X2709Y749D01*
X2704Y752D01*
X2697Y754D01*
X2691Y756D01*
X2683Y759D01*
X2675Y762D01*
X2665Y765D01*
X2654Y768D01*
X2642Y772D01*
X2642D01*
X2640Y772D01*
X2637Y773D01*
X2633Y775D01*
X2628Y776D01*
X2623Y778D01*
X2610Y782D01*
X2597Y787D01*
X2584Y793D01*
X2571Y800D01*
X2565Y803D01*
X2560Y806D01*
X2559Y807D01*
X2556Y809D01*
X2552Y813D01*
X2546Y818D01*
X2540Y825D01*
X2534Y832D01*
X2528Y840D01*
X2522Y850D01*
Y850D01*
X2522Y851D01*
X2520Y854D01*
X2518Y860D01*
X2516Y867D01*
X2513Y877D01*
X2511Y886D01*
X2510Y898D01*
X2509Y910D01*
Y911D01*
Y913D01*
Y916D01*
X2510Y920D01*
X2510Y926D01*
X2511Y931D01*
X2512Y938D01*
X2514Y945D01*
X2518Y961D01*
X2522Y969D01*
X2525Y977D01*
X2530Y986D01*
X2535Y994D01*
X2541Y1001D01*
X2548Y1009D01*
X2549Y1009D01*
X2550Y1011D01*
X2552Y1012D01*
X2555Y1015D01*
X2559Y1018D01*
X2564Y1021D01*
X2570Y1025D01*
X2576Y1028D01*
X2583Y1032D01*
X2591Y1035D01*
X2599Y1039D01*
X2609Y1042D01*
X2619Y1044D01*
X2630Y1046D01*
X2641Y1047D01*
X2653Y1047D01*
X2661D01*
X2665Y1047D01*
D02*
G37*
G36*
X1512Y541D02*
X1457D01*
X1299Y1039D01*
X1358D01*
X1463Y677D01*
Y677D01*
X1464Y675D01*
X1464Y673D01*
X1465Y670D01*
X1466Y666D01*
X1468Y662D01*
X1469Y657D01*
X1471Y652D01*
X1474Y639D01*
X1478Y625D01*
X1481Y611D01*
X1485Y596D01*
Y597D01*
X1485Y598D01*
X1486Y600D01*
X1486Y603D01*
X1487Y607D01*
X1488Y611D01*
X1489Y616D01*
X1491Y622D01*
X1494Y634D01*
X1497Y647D01*
X1502Y662D01*
X1506Y677D01*
X1617Y1039D01*
X1672D01*
X1512Y541D01*
D02*
G37*
G36*
X2420Y751D02*
Y751D01*
Y748D01*
Y744D01*
Y739D01*
X2420Y733D01*
Y726D01*
X2419Y718D01*
X2419Y709D01*
X2417Y691D01*
X2414Y671D01*
X2410Y651D01*
X2408Y642D01*
X2406Y632D01*
Y632D01*
X2405Y631D01*
X2404Y628D01*
X2403Y625D01*
X2402Y621D01*
X2399Y617D01*
X2394Y606D01*
X2387Y594D01*
X2378Y582D01*
X2367Y570D01*
X2354Y559D01*
X2354D01*
X2353Y558D01*
X2351Y557D01*
X2348Y555D01*
X2344Y554D01*
X2340Y551D01*
X2335Y549D01*
X2329Y547D01*
X2322Y544D01*
X2315Y541D01*
X2308Y539D01*
X2300Y537D01*
X2281Y534D01*
X2271Y534D01*
X2261Y533D01*
X2257D01*
X2253Y534D01*
X2247D01*
X2241Y535D01*
X2233Y536D01*
X2224Y537D01*
X2215Y539D01*
X2206Y542D01*
X2196Y545D01*
X2186Y549D01*
X2175Y554D01*
X2166Y559D01*
X2157Y565D01*
X2148Y573D01*
X2140Y581D01*
X2139Y582D01*
X2138Y583D01*
X2136Y586D01*
X2133Y590D01*
X2131Y596D01*
X2128Y603D01*
X2124Y611D01*
X2120Y621D01*
X2117Y631D01*
X2113Y644D01*
X2110Y658D01*
X2107Y673D01*
X2104Y690D01*
X2102Y709D01*
X2101Y729D01*
X2100Y751D01*
Y1039D01*
X2154D01*
Y752D01*
Y751D01*
Y749D01*
Y745D01*
Y741D01*
X2155Y735D01*
Y729D01*
Y721D01*
X2156Y714D01*
X2157Y698D01*
X2159Y682D01*
X2161Y667D01*
X2163Y660D01*
X2164Y654D01*
Y653D01*
X2165Y653D01*
X2166Y649D01*
X2169Y643D01*
X2173Y637D01*
X2177Y630D01*
X2184Y622D01*
X2191Y615D01*
X2199Y608D01*
X2200Y608D01*
X2203Y606D01*
X2208Y603D01*
X2215Y601D01*
X2223Y598D01*
X2234Y595D01*
X2245Y593D01*
X2257Y593D01*
X2262D01*
X2266Y593D01*
X2271Y594D01*
X2276Y594D01*
X2289Y597D01*
X2303Y600D01*
X2316Y606D01*
X2323Y610D01*
X2329Y614D01*
X2335Y619D01*
X2340Y625D01*
X2340Y625D01*
X2341Y626D01*
X2342Y628D01*
X2344Y631D01*
X2346Y635D01*
X2348Y640D01*
X2350Y646D01*
X2353Y653D01*
X2356Y661D01*
X2358Y670D01*
X2360Y681D01*
X2362Y692D01*
X2364Y705D01*
X2365Y719D01*
X2366Y735D01*
Y752D01*
Y1039D01*
X2420D01*
Y751D01*
D02*
G37*
G36*
X1883Y1038D02*
X1887D01*
X1898Y1037D01*
X1910Y1035D01*
X1922Y1032D01*
X1934Y1029D01*
X1945Y1024D01*
X1945D01*
X1946Y1023D01*
X1949Y1021D01*
X1954Y1018D01*
X1960Y1013D01*
X1967Y1007D01*
X1975Y999D01*
X1982Y990D01*
X1989Y979D01*
Y979D01*
X1990Y978D01*
X1991Y976D01*
X1992Y974D01*
X1995Y968D01*
X1998Y959D01*
X2002Y949D01*
X2004Y938D01*
X2006Y925D01*
X2007Y912D01*
Y911D01*
Y910D01*
Y908D01*
Y906D01*
X2006Y899D01*
X2005Y891D01*
X2003Y882D01*
X2001Y871D01*
X1997Y860D01*
X1992Y850D01*
Y849D01*
X1991Y849D01*
X1989Y845D01*
X1985Y840D01*
X1981Y834D01*
X1975Y827D01*
X1968Y820D01*
X1959Y812D01*
X1950Y806D01*
X1950D01*
X1952Y805D01*
X1953Y805D01*
X1956Y804D01*
X1962Y800D01*
X1970Y796D01*
X1979Y790D01*
X1988Y782D01*
X1998Y773D01*
X2006Y762D01*
Y761D01*
X2007Y761D01*
X2008Y759D01*
X2009Y756D01*
X2010Y753D01*
X2012Y749D01*
X2016Y741D01*
X2020Y730D01*
X2023Y716D01*
X2026Y702D01*
X2027Y685D01*
Y685D01*
Y684D01*
Y681D01*
Y678D01*
X2026Y674D01*
X2026Y670D01*
X2024Y659D01*
X2022Y646D01*
X2019Y633D01*
X2015Y619D01*
X2008Y606D01*
Y605D01*
X2008Y604D01*
X2006Y603D01*
X2005Y601D01*
X2001Y594D01*
X1995Y587D01*
X1988Y579D01*
X1980Y571D01*
X1970Y563D01*
X1959Y556D01*
X1958D01*
X1957Y556D01*
X1956Y555D01*
X1953Y554D01*
X1950Y553D01*
X1946Y552D01*
X1942Y550D01*
X1936Y549D01*
X1931Y548D01*
X1924Y546D01*
X1917Y545D01*
X1910Y544D01*
X1901Y543D01*
X1893Y542D01*
X1873Y541D01*
X1718D01*
Y1039D01*
X1879D01*
X1883Y1038D01*
D02*
G37*
%LPC*%
G36*
X-1476Y980D02*
X-1570D01*
Y600D01*
X-1475D01*
X-1471Y601D01*
X-1466Y601D01*
X-1454Y603D01*
X-1441Y604D01*
X-1429Y607D01*
X-1416Y611D01*
X-1410Y614D01*
X-1405Y617D01*
X-1404D01*
X-1403Y618D01*
X-1400Y621D01*
X-1395Y625D01*
X-1389Y631D01*
X-1382Y638D01*
X-1375Y647D01*
X-1368Y659D01*
X-1363Y672D01*
Y673D01*
X-1362Y674D01*
X-1361Y677D01*
X-1360Y681D01*
X-1358Y686D01*
X-1356Y692D01*
X-1354Y699D01*
X-1353Y706D01*
X-1351Y714D01*
X-1349Y724D01*
X-1347Y734D01*
X-1346Y744D01*
X-1345Y756D01*
X-1343Y768D01*
X-1343Y793D01*
Y794D01*
Y797D01*
Y800D01*
X-1343Y805D01*
Y812D01*
X-1344Y819D01*
X-1345Y828D01*
X-1345Y836D01*
X-1348Y855D01*
X-1352Y875D01*
X-1357Y894D01*
X-1360Y903D01*
X-1364Y912D01*
Y912D01*
X-1365Y913D01*
X-1366Y916D01*
X-1367Y919D01*
X-1370Y922D01*
X-1372Y926D01*
X-1378Y935D01*
X-1385Y945D01*
X-1395Y955D01*
X-1405Y963D01*
X-1410Y967D01*
X-1416Y970D01*
X-1417Y970D01*
X-1420Y972D01*
X-1426Y973D01*
X-1433Y975D01*
X-1443Y977D01*
X-1454Y978D01*
X-1461Y979D01*
X-1469Y979D01*
X-1476Y980D01*
D02*
G37*
G36*
X1869D02*
X1773D01*
Y830D01*
X1872D01*
X1880Y831D01*
X1887Y831D01*
X1896Y832D01*
X1903Y833D01*
X1910Y835D01*
X1911Y835D01*
X1913Y836D01*
X1917Y838D01*
X1922Y840D01*
X1927Y843D01*
X1932Y847D01*
X1938Y852D01*
X1942Y858D01*
X1943Y858D01*
X1944Y861D01*
X1946Y865D01*
X1948Y870D01*
X1950Y877D01*
X1952Y885D01*
X1953Y893D01*
X1954Y904D01*
Y905D01*
Y905D01*
Y909D01*
X1953Y913D01*
X1953Y919D01*
X1952Y926D01*
X1949Y934D01*
X1947Y941D01*
X1943Y948D01*
X1943Y948D01*
X1942Y951D01*
X1939Y954D01*
X1936Y958D01*
X1932Y962D01*
X1927Y966D01*
X1922Y970D01*
X1915Y973D01*
X1915Y973D01*
X1912Y974D01*
X1908Y975D01*
X1901Y976D01*
X1893Y977D01*
X1883Y979D01*
X1876Y979D01*
X1869Y980D01*
D02*
G37*
G36*
X1866Y771D02*
X1773D01*
Y600D01*
X1879D01*
X1886Y601D01*
X1893D01*
X1901Y601D01*
X1909Y603D01*
X1917Y604D01*
X1924Y606D01*
X1925Y607D01*
X1927Y608D01*
X1931Y610D01*
X1936Y613D01*
X1942Y617D01*
X1948Y622D01*
X1953Y628D01*
X1959Y635D01*
X1959Y636D01*
X1960Y638D01*
X1963Y643D01*
X1965Y649D01*
X1967Y656D01*
X1969Y665D01*
X1970Y675D01*
X1971Y686D01*
Y687D01*
Y687D01*
Y691D01*
X1970Y696D01*
X1970Y702D01*
X1968Y710D01*
X1966Y717D01*
X1963Y726D01*
X1959Y733D01*
X1959Y734D01*
X1957Y737D01*
X1955Y740D01*
X1951Y744D01*
X1946Y749D01*
X1941Y754D01*
X1935Y758D01*
X1928Y762D01*
X1927Y762D01*
X1924Y763D01*
X1920Y765D01*
X1913Y766D01*
X1904Y768D01*
X1894Y770D01*
X1881Y770D01*
X1866Y771D01*
D02*
G37*
%LPD*%
D10*
X276Y-177D02*
G03*
X276Y-177I-20J0D01*
G01*
D11*
X3514Y-758D02*
Y-758D01*
M02*
